<?xml version="1.0" encoding="UTF-8"?>
<svg version="1.1" xmlns="http://www.w3.org/2000/svg" width="1431" height="945">
<path d="M0 0 C2.85442812 1.30441362 4.07396958 0.94047173 7.04296875 -0.06640625 C9.52859019 -1.41266644 11.93742052 -2.79716882 14.35546875 -4.25390625 C27.47422502 -11.85580956 41.20419673 -16.18439178 56.04296875 -19.06640625 C57.20699219 -19.29328125 58.37101562 -19.52015625 59.5703125 -19.75390625 C94.47280189 -25.40740284 130.97332211 -18.42272098 160.15625 1.72265625 C167.31205789 7.20328855 173.69943894 13.5453124 180.04296875 19.93359375 C181.09158969 21.18515429 181.09158969 21.18515429 183.41796875 21.24609375 C186.07011797 21.20060816 186.07011797 21.20060816 187.5234375 19.48828125 C190.14083901 15.08781701 191.29743986 10.12288702 192.70507812 5.22460938 C193.07149414 4.03834961 193.07149414 4.03834961 193.4453125 2.828125 C193.65663818 2.10471924 193.86796387 1.38131348 194.08569336 0.63598633 C195.04296875 -1.06640625 195.04296875 -1.06640625 197.10279846 -1.67280579 C197.74305466 -1.80269394 198.38331085 -1.93258209 199.04296875 -2.06640625 C196.05297195 11.03580784 192.7074822 24.02872581 189.25390625 37.015625 C188.70382495 39.08922655 188.15382858 41.16285064 187.60391235 43.23649597 C186.46093451 47.54393736 185.31604453 51.85086508 184.16992188 56.1574707 C182.70149822 61.67628686 181.23936134 67.19674784 179.77876854 72.71764088 C178.64938452 76.98287884 177.51602528 81.24705287 176.38151932 85.51093102 C175.84028784 87.54753426 175.30045835 89.58451063 174.76206589 91.62186623 C174.01267936 94.4558203 173.25778478 97.288251 172.50146484 100.12036133 C172.28117111 100.95824188 172.06087738 101.79612244 171.83390808 102.65939331 C171.62658554 103.43125473 171.419263 104.20311615 171.20565796 104.99836731 C171.02833822 105.66578855 170.85101849 106.33320978 170.66832542 107.0208559 C169.98370847 109.11484932 169.07143878 110.98824268 168.04296875 112.93359375 C167.05296875 112.60359375 166.06296875 112.27359375 165.04296875 111.93359375 C165.15890381 111.3195166 165.27483887 110.70543945 165.39428711 110.07275391 C165.92737121 107.23549968 166.45394727 104.39707286 166.98046875 101.55859375 C167.16287109 100.59308594 167.34527344 99.62757813 167.53320312 98.6328125 C172.63302926 71.00102723 170.93078491 41.96934009 155.04296875 17.93359375 C142.595209 1.33499767 125.05060148 -9.18649583 105.04296875 -14.06640625 C104.15222656 -14.29070312 103.26148438 -14.515 102.34375 -14.74609375 C74.09261199 -20.63006829 42.8662267 -13.4275766 18.81640625 2.00390625 C16.51900103 3.60238255 14.26106637 5.22736481 12.04296875 6.93359375 C15.16010753 10.15463715 18.40642237 13.12042189 21.79296875 16.05859375 C27.18633554 20.89181859 31.64257499 26.19708044 36.04296875 31.93359375 C36.71070313 32.78566406 37.3784375 33.63773437 38.06640625 34.515625 C60.69901942 64.34952417 68.57144914 101.13908675 64.58203125 138.09765625 C63.9824316 142.43750244 63.07632654 146.67842454 62.04296875 150.93359375 C61.76090576 152.14523193 61.76090576 152.14523193 61.47314453 153.38134766 C55.27986535 179.33202502 41.98141343 207.55982756 20.04296875 223.93359375 C21.36678433 227.90504049 23.74777395 228.83042616 27.23046875 230.74609375 C27.85759766 231.09575195 28.48472656 231.44541016 29.13085938 231.80566406 C47.95194794 242.0999158 67.3269476 247.33938179 88.73046875 247.24609375 C89.39182831 247.24427094 90.05318787 247.24244812 90.73458862 247.24057007 C129.7175331 247.05968157 164.02114794 225.83908446 191.04296875 198.93359375 C197.0135938 192.78651476 202.74541147 186.40893757 208.26171875 179.8515625 C210.04296875 177.93359375 210.04296875 177.93359375 212.51171875 175.859375 C218.32447147 170.82450537 220.79589373 167.00224463 222.58984375 159.6262207 C222.79560028 158.83462964 223.00135681 158.04303858 223.21334839 157.22745991 C223.83963314 154.79998641 224.44323734 152.36774651 225.04296875 149.93359375 C225.39565485 148.53794779 225.74897511 147.14246189 226.10302734 145.74716187 C227.15157662 141.58005175 228.1608468 137.40384133 229.16796875 133.2265625 C229.55184542 131.64475876 229.93603107 130.06302998 230.32049561 128.48136902 C231.13882242 125.11292884 231.95552628 121.74410147 232.77087402 118.37493896 C234.96350638 109.31586075 237.16765435 100.25957942 239.37109375 91.203125 C239.59917976 90.26527664 239.82726578 89.32742828 240.06226349 88.36116028 C245.58332803 65.6631883 251.18331652 42.98480682 256.79296875 20.30859375 C257.26498017 18.40017854 257.73698541 16.4917618 258.20898438 14.58334351 C260.81851891 4.03298258 263.42976512 -6.51695352 266.04296875 -17.06640625 C267.36296875 -17.06640625 268.68296875 -17.06640625 270.04296875 -17.06640625 C273.35528881 -4.88895635 276.41244416 7.34620618 279.4375 19.59765625 C279.95300421 21.68153197 280.46860585 23.7653836 280.98429871 25.84921265 C282.06175494 30.20427797 283.13829154 34.55956921 284.21411133 38.91503906 C285.57070753 44.40708026 286.92920802 49.89864812 288.28833199 55.39006424 C293.93871416 78.22222406 299.57318235 101.05737395 305.04296875 123.93359375 C305.84468506 123.86358154 306.64640137 123.79356934 307.47241211 123.72143555 C309.0677478 123.58475464 309.0677478 123.58475464 310.6953125 123.4453125 C311.74452881 123.35467529 312.79374512 123.26403809 313.87475586 123.1706543 C339.45873239 121.25634119 372.32810232 125.45701613 394.04296875 139.93359375 C394.11306992 121.78350844 394.16596235 103.63345829 394.19840527 85.48326683 C394.2138699 77.05569303 394.23495168 68.62820338 394.26928711 60.20068359 C394.29920185 52.8547013 394.31854669 45.50877996 394.32523423 38.16273844 C394.32914299 34.27354997 394.33832061 30.38453585 394.36015892 26.49540329 C394.38055692 22.83301804 394.38679591 19.17087859 394.38229179 15.50844193 C394.38350758 13.52716178 394.39963238 11.54590827 394.41622925 9.56469727 C394.41210526 8.37846771 394.40798126 7.19223816 394.4037323 5.97006226 C394.40649768 4.94318487 394.40926306 3.91630749 394.41211224 2.85831261 C393.8382925 -1.68805345 392.09344099 -4.98503777 388.91796875 -8.25390625 C383.79987396 -11.48053122 377.99901937 -13.10575292 372.04296875 -14.06640625 C372.04296875 -14.72640625 372.04296875 -15.38640625 372.04296875 -16.06640625 C382.1800262 -16.13642357 392.31702457 -16.18947693 402.45427608 -16.22184277 C407.16320882 -16.23738958 411.87197413 -16.25842271 416.58081055 -16.29272461 C421.13905506 -16.32571547 425.69714023 -16.34334144 430.25549507 -16.35103798 C431.98031683 -16.35651119 433.7051315 -16.36719486 435.42988396 -16.38359642 C450.02874898 -16.51669454 464.28303616 -15.24365049 478.16796875 -10.37890625 C478.90748779 -10.12399414 479.64700684 -9.86908203 480.40893555 -9.60644531 C506.64114932 -0.19623941 526.87302958 18.70473067 539.28979492 43.5534668 C550.99828025 68.52740105 550.36121194 96.73061219 541.58300781 122.4465332 C532.43756193 147.54134987 512.87255246 166.53958015 489.10546875 177.99462891 C475.37927094 184.24355845 460.86742041 186.72519055 446.04296875 188.93359375 C446.40946533 189.37525879 446.77596191 189.81692383 447.15356445 190.27197266 C453.47855949 197.90221936 459.78298466 205.5375783 465.85546875 213.37109375 C469.66783103 218.2796051 473.66056436 222.93928721 477.87109375 227.515625 C480.14526913 230.04748572 482.28473399 232.65717963 484.41796875 235.30859375 C488.51270438 240.36974425 492.83477537 245.15302578 497.26953125 249.9140625 C499.35323514 252.15980274 501.37471952 254.45207001 503.3828125 256.765625 C507.14733664 261.08571344 511.04637795 265.26808585 514.98046875 269.43359375 C515.64498047 270.14128906 516.30949219 270.84898437 516.99414062 271.578125 C524.03852647 279.05296313 531.17988898 286.31725033 539.04296875 292.93359375 C539.5735791 293.38863281 540.10418945 293.84367187 540.65087891 294.3125 C562.17304504 312.71133456 586.51388589 326.78803332 614.04296875 333.93359375 C614.69523437 334.11003418 615.3475 334.28647461 616.01953125 334.46826172 C636.33213885 339.73971775 661.0236065 339.0078248 681.04296875 332.93359375 C681.76049316 332.72460449 682.47801758 332.51561523 683.21728516 332.30029297 C708.77586979 324.68915969 732.09957041 308.57144505 745.04296875 284.93359375 C759.02282544 257.87924252 759.79259103 224.95727185 751.09350586 196.04785156 C746.17127391 180.69661014 738.47834203 168.13981825 728.04296875 155.93359375 C727.4603125 155.2478125 726.87765625 154.56203125 726.27734375 153.85546875 C711.15199973 137.50787471 688.98304357 128.40010001 667.04296875 127.18359375 C664.70970281 127.09839425 662.37637374 127.01489588 660.04296875 126.93359375 C660.34739395 127.99921539 660.65181915 129.06483704 660.96546936 130.16275024 C663.99213886 140.8514565 666.71894317 151.58726102 669.27734184 162.39680099 C670.16213462 166.12822121 671.0587143 169.85678261 671.95435429 173.58561134 C673.61003751 180.47946875 675.26088121 187.37440557 676.89282227 194.27392578 C678.03997639 199.12184065 679.20162083 203.96608908 680.37257576 208.80830765 C680.81117855 210.63364466 681.24456564 212.46024413 681.67230034 214.28815842 C685.6788583 233.079749 685.6788583 233.079749 697.1015625 247.89453125 C700.02432399 249.45882613 702.95906561 250.04707195 706.22265625 250.51171875 C706.82335938 250.6509375 707.4240625 250.79015625 708.04296875 250.93359375 C708.37296875 251.59359375 708.70296875 252.25359375 709.04296875 252.93359375 C688.25296875 252.93359375 667.46296875 252.93359375 646.04296875 252.93359375 C648.38515668 250.59140582 649.67922984 250.42646222 652.85546875 249.68359375 C656.78633786 248.51741695 659.86084156 247.42467991 662.27380371 243.86450195 C666.5583624 233.1085665 660.62769654 218.32553437 658.01171875 207.68359375 C657.49473865 205.53587912 656.97909474 203.38784246 656.46472168 201.23950195 C655.11513786 195.61589164 653.75017107 189.99613801 652.38104248 184.3772583 C650.18600759 175.3578086 648.0141865 166.33274651 645.84315491 157.30749512 C645.08356863 154.15983881 644.31715484 151.01390567 643.54968262 147.86816406 C643.08440761 145.94599898 642.61927141 144.02380029 642.15429688 142.1015625 C641.93922989 141.22777451 641.7241629 140.35398651 641.50257874 139.45372009 C641.21229042 138.24722557 641.21229042 138.24722557 640.9161377 137.01635742 C640.66172283 135.97229988 640.66172283 135.97229988 640.40216827 134.90715027 C640.04296875 132.93359375 640.04296875 132.93359375 640.04296875 128.93359375 C623.43831067 134.29173552 608.19273672 140.08028178 595.04296875 151.93359375 C593.91375 152.92359375 593.91375 152.92359375 592.76171875 153.93359375 C584.50610857 161.59097131 583.01427068 171.49994349 580.46875 182.14453125 C580.1368533 183.52164537 579.80483507 184.89873021 579.47270203 186.27578735 C578.78072752 189.15107821 578.09307189 192.02736382 577.40795898 194.90429688 C576.53491412 198.56708181 575.64679009 202.22602603 574.75480366 205.88423729 C574.06499832 208.72392487 573.38556409 211.56602236 572.70888329 214.40886307 C572.38603996 215.75796023 572.05957132 217.10619579 571.72921181 218.45347214 C568.20765969 231.52568175 568.20765969 231.52568175 570.66796875 244.37109375 C574.96604237 249.00848897 580.11000294 250.39102264 586.04296875 251.93359375 C586.04296875 252.26359375 586.04296875 252.59359375 586.04296875 252.93359375 C569.54296875 252.93359375 553.04296875 252.93359375 536.04296875 252.93359375 C538.34686699 250.62969551 539.17151087 250.60417652 542.29296875 250.12109375 C547.82446822 248.95096886 551.1336466 246.60776133 554.37890625 242.0625 C562.29101233 228.99553693 564.57474189 212.07258313 568.15234375 197.421875 C568.75376873 194.97105042 569.35552768 192.52030777 569.95759583 190.06964111 C571.2399517 184.84671182 572.51999654 179.62322512 573.79788208 174.39920044 C575.63622269 166.88407416 577.4791062 159.37006747 579.32300818 151.85630405 C585.6741501 125.97451534 592.00607975 100.08802104 598.33834457 74.20160866 C599.17776661 70.77025645 600.01734056 67.33894145 600.85696411 63.90763855 C601.39911475 61.69192648 601.9412596 59.476213 602.48339844 57.26049805 C602.74592093 56.18759868 603.00844341 55.11469931 603.27892113 54.00928783 C604.80831032 47.75781636 606.33569418 41.50585929 607.86135578 35.2534771 C608.80601366 31.38325476 609.75198377 27.51335389 610.69821739 23.64351654 C611.12702018 21.88849259 611.55524864 20.13332817 611.98279762 18.37799835 C614.86964979 6.52675586 617.90345631 -5.27955799 621.04296875 -17.06640625 C622.36296875 -17.06640625 623.68296875 -17.06640625 625.04296875 -17.06640625 C633.31159126 15.73239012 641.42350188 48.56700737 649.41796875 81.43359375 C649.74079016 82.76075283 649.74079016 82.76075283 650.07013321 84.11472321 C652.73065896 95.05363947 655.38824357 105.99326834 658.04296875 116.93359375 C658.74988861 117.01039871 659.45680847 117.08720367 660.18515015 117.16633606 C663.43820279 117.52452501 666.68974862 117.89499394 669.94140625 118.265625 C671.05314209 118.38619263 672.16487793 118.50676025 673.31030273 118.63098145 C693.16735565 120.92442366 710.96534937 128.76760111 726.04296875 141.93359375 C726.70296875 142.45050781 727.36296875 142.96742188 728.04296875 143.5 C750.3203031 161.42067824 761.62123878 191.40060372 765.04296875 218.93359375 C765.27975882 223.91013178 765.28864491 228.88944779 765.29296875 233.87109375 C765.29398087 234.91463013 765.29398087 234.91463013 765.29501343 235.97924805 C765.27915454 246.25818114 764.87810519 255.9648882 762.04296875 265.93359375 C761.70265625 267.16078125 761.36234375 268.38796875 761.01171875 269.65234375 C752.17276402 298.55811463 733.36819534 323.32628873 706.66796875 337.74609375 C688.93450449 346.92082192 668.95831828 351.37061567 649.04296875 351.93359375 C647.38587891 352.0109375 647.38587891 352.0109375 645.6953125 352.08984375 C604.34544863 353.18884345 563.23360287 338.0912836 533.04296875 309.93359375 C514.04104594 291.78757898 514.04104594 291.78757898 506.09375 281.546875 C504.0622738 278.9581939 501.93837834 276.48657214 499.77246094 274.01098633 C493.9536908 267.35109252 488.56874859 260.45564359 483.31640625 253.34375 C480.26018571 249.20657854 477.13896146 245.12132823 474.01025391 241.03881836 C468.48433682 233.82804464 463.00887395 226.59919848 457.7668457 219.17919922 C446.73014502 203.56473694 435.2667758 188.27567497 422.98046875 173.62109375 C422.51487549 173.06309082 422.04928223 172.50508789 421.56958008 171.93017578 C419.15373482 169.01407665 419.15373482 169.01407665 416.04296875 166.93359375 C416.10435073 175.6617424 416.18157872 184.3895687 416.27868366 193.11739349 C416.32328988 197.17068977 416.362567 201.22388779 416.3894043 205.27734375 C416.41553521 209.19383448 416.45600547 213.10994513 416.50615501 217.02619934 C416.52275791 218.51556141 416.53431297 220.00498913 416.54058266 221.49443054 C416.28533428 234.33608211 416.28533428 234.33608211 422.23046875 245.24609375 C427.77045854 248.57008763 433.84207561 250.25418519 440.04296875 251.93359375 C440.04296875 252.26359375 440.04296875 252.59359375 440.04296875 252.93359375 C417.60296875 252.93359375 395.16296875 252.93359375 372.04296875 252.93359375 C372.37296875 252.27359375 372.70296875 251.61359375 373.04296875 250.93359375 C375.98977892 250.07034108 378.9636938 249.45929956 381.96484375 248.8125 C385.83875379 247.70637086 388.80166041 246.77924619 391.13241196 243.31374359 C393.92916544 238.05127174 394.60409434 233.85697038 394.49707031 227.94726562 C394.49794647 226.65804199 394.49794647 226.65804199 394.49884033 225.34277344 C394.49607483 222.52887222 394.46505644 219.71605771 394.43359375 216.90234375 C394.42612589 214.94080178 394.42043553 212.97925231 394.41644287 211.0177002 C394.40122951 205.87519439 394.36198491 200.73314629 394.31762695 195.59082031 C394.27658129 190.33534943 394.25841205 185.079804 394.23828125 179.82421875 C394.19548636 169.52714355 394.12728736 159.23040683 394.04296875 148.93359375 C391.65676205 147.80307209 389.26887404 146.67636782 386.87988281 145.55175781 C386.20962067 145.23373199 385.53935852 144.91570618 384.8487854 144.58804321 C379.6131528 142.12875523 374.38548484 140.18338194 368.79296875 138.68359375 C367.45359253 138.31983643 367.45359253 138.31983643 366.0871582 137.94873047 C363.41250899 137.24486296 360.732438 136.57833302 358.04296875 135.93359375 C356.91544189 135.66240723 356.91544189 135.66240723 355.76513672 135.38574219 C344.69855945 132.87322205 333.69408663 132.7884666 322.40625 132.86328125 C320.91101265 132.86893693 319.41577322 132.87406775 317.92053223 132.87866211 C314.29463374 132.89092829 310.66881498 132.9102741 307.04296875 132.93359375 C307.22343246 133.65544861 307.40389618 134.37730347 307.58982849 135.12103271 C307.84692093 136.14940247 308.10401337 137.17777222 308.36889648 138.23730469 C308.80628899 139.9867765 308.80628899 139.9867765 309.2525177 141.77159119 C309.91168806 144.40823856 310.5706719 147.04493246 311.22953796 149.68165588 C312.86594974 156.22977218 314.50344178 162.7776105 316.14584351 169.32422733 C317.06663895 172.99463207 317.98665346 176.66523221 318.90625 180.3359375 C319.17895092 181.42437234 319.17895092 181.42437234 319.45716095 182.53479576 C321.64776241 191.28379735 323.80573262 200.03947563 325.8984375 208.8125 C326.48021452 211.22814912 327.06289185 213.64357935 327.64578247 216.05895996 C328.15072804 218.17388248 328.638967 220.29218984 329.12670898 222.41113281 C331.24609552 231.17984962 334.0581591 240.46134621 340.73046875 246.93359375 C345.25943813 249.66806583 349.9050165 250.8090953 355.04296875 251.93359375 C355.04296875 252.26359375 355.04296875 252.59359375 355.04296875 252.93359375 C333.92296875 252.93359375 312.80296875 252.93359375 291.04296875 252.93359375 C293.35788604 250.61867646 294.21455165 250.60146931 297.35546875 250.12109375 C301.91385148 249.18303428 304.15082416 247.70214579 307.04296875 243.93359375 C310.62384916 238.23673855 308.48083133 230.59656731 307.12547302 224.36572266 C306.75745833 222.79564525 306.38257501 221.2271658 306.00170898 219.66015625 C305.79673798 218.79384079 305.59176697 217.92752533 305.38058472 217.03495789 C304.71024001 214.20803866 304.03089962 211.38336409 303.3515625 208.55859375 C302.88153633 206.58242518 302.41215052 204.6061042 301.94337463 202.62963867 C300.714312 197.45392363 299.47789919 192.2799948 298.23950195 187.10650635 C296.25211964 178.79884554 294.27566318 170.48858059 292.29985237 162.17816162 C291.60866375 159.27591138 290.91412784 156.37447767 290.21910095 153.47314453 C289.79760347 151.70607261 289.3761772 149.93898371 288.95483398 148.171875 C288.76003952 147.36256027 288.56524506 146.55324554 288.36454773 145.71940613 C287.04296875 140.16048891 287.04296875 140.16048891 287.04296875 137.93359375 C270.93342038 143.46244279 255.30380394 150.53718492 242.04150391 161.43164062 C240.04296875 162.93359375 240.04296875 162.93359375 237.22802734 164.43554688 C227.27385903 170.70073501 225.49785349 179.35635972 222.8952179 190.41670227 C222.13954024 193.77229891 221.43134948 197.1369688 220.72912598 200.50408936 C220.14657244 203.24818879 219.52304222 205.98219793 218.89734268 208.71673012 C213.35735781 226.40506171 213.35735781 226.40506171 215.66796875 243.74609375 C219.66936637 249.11639056 224.83245927 250.31886129 231.04296875 251.93359375 C231.04296875 252.26359375 231.04296875 252.59359375 231.04296875 252.93359375 C214.87296875 252.93359375 198.70296875 252.93359375 182.04296875 252.93359375 C182.37296875 252.27359375 182.70296875 251.61359375 183.04296875 250.93359375 C184.73871489 250.50525649 186.45080012 250.14079803 188.16796875 249.80859375 C194.42397169 248.18576549 197.70744584 245.41641259 201.04296875 239.93359375 C204.25897632 233.55353256 206.21296266 227.14745286 207.83984375 220.2109375 C208.07834045 219.22485001 208.31683716 218.23876251 208.56256104 217.22279358 C209.31410754 214.10743582 210.05372059 210.98939005 210.79296875 207.87109375 C211.30389777 205.74395078 211.81560908 203.61699555 212.328125 201.49023438 C213.57545475 196.30682268 214.81302932 191.12115777 216.04296875 185.93359375 C212.18689314 188.95188263 208.86562692 192.16770728 205.60546875 195.80859375 C174.09747468 230.27552263 134.56692802 257.04493775 86.73046875 259.74609375 C58.71206978 260.92374528 32.50319044 254.11881868 8.08984375 240.5703125 C5.12553289 238.86646992 5.12553289 238.86646992 2.04296875 237.93359375 C-0.2094471 239.02347239 -2.30551126 240.1696951 -4.45703125 241.43359375 C-36.02627845 259.00603203 -76.77126879 264.4689083 -111.95703125 255.93359375 C-112.74368164 255.74555176 -113.53033203 255.55750977 -114.34082031 255.36376953 C-133.01357832 250.71959525 -150.7289532 242.76142971 -165.95703125 230.93359375 C-166.91867187 230.19238281 -167.8803125 229.45117188 -168.87109375 228.6875 C-197.29998514 206.09318825 -213.48018833 174.38310784 -219.26953125 138.80859375 C-223.51215398 101.03293369 -215.11518539 63.36924253 -191.56787109 33.15087891 C-167.13301497 2.68126413 -133.42325402 -15.77543496 -94.65625 -20.66015625 C-62.71429318 -23.88759595 -26.81568126 -18.80516809 0 0 Z M-123.95703125 -8.06640625 C-125.54064453 -7.49599609 -125.54064453 -7.49599609 -127.15625 -6.9140625 C-139.03657778 -2.30169995 -149.27536184 4.74270042 -158.95703125 12.93359375 C-159.61960937 13.45050781 -160.2821875 13.96742188 -160.96484375 14.5 C-178.46602069 28.63556599 -188.95879407 50.22140305 -194.70703125 71.49609375 C-194.90578857 72.22650879 -195.1045459 72.95692383 -195.30932617 73.70947266 C-198.33847325 85.55859234 -199.32426327 97.42061283 -199.26953125 109.62109375 C-199.2646167 110.93182861 -199.25970215 112.24256348 -199.25463867 113.59301758 C-199.13003757 123.97196958 -198.24078643 133.81628855 -195.95703125 143.93359375 C-195.70759766 145.08529053 -195.70759766 145.08529053 -195.453125 146.26025391 C-189.39096417 173.62417434 -176.39972494 198.71319231 -156.95703125 218.93359375 C-156.08046875 219.86171875 -155.20390625 220.78984375 -154.30078125 221.74609375 C-148.66043696 227.62785355 -142.88549793 232.63454516 -135.95703125 236.93359375 C-134.90902344 237.59101562 -133.86101562 238.2484375 -132.78125 238.92578125 C-117.32807078 248.33322349 -100.10026116 254.00389408 -81.95703125 254.93359375 C-81.044375 254.98644531 -80.13171875 255.03929687 -79.19140625 255.09375 C-53.09419733 255.86328308 -26.35122683 247.84607329 -4.95703125 232.93359375 C-6.45528801 229.2821046 -8.53134258 227.34317631 -11.51953125 224.80859375 C-38.15916328 201.26481566 -52.29132673 166.99960707 -54.95703125 131.93359375 C-56.85719708 92.65004957 -46.76884159 53.904378 -19.95703125 24.30859375 C-19.23515625 23.55320312 -18.51328125 22.7978125 -17.76953125 22.01953125 C-16.05758324 20.04931523 -15.08722939 18.25987601 -13.95703125 15.93359375 C-12.01953125 14.87109375 -12.01953125 14.87109375 -9.95703125 13.93359375 C-8.24781536 12.39236255 -8.24781536 12.39236255 -6.95703125 10.93359375 C-8.32504739 6.82954532 -11.10908578 5.45433262 -14.58203125 3.18359375 C-15.25282715 2.74257324 -15.92362305 2.30155273 -16.61474609 1.84716797 C-48.92953644 -18.89915367 -88.32643651 -20.99842059 -123.95703125 -8.06640625 Z M419.04296875 -5.06640625 C415.04202407 1.76447116 415.53273552 8.99718558 415.46435547 16.71875 C415.44061957 18.22253577 415.41581073 19.72630492 415.39001465 21.23005676 C415.31172155 26.15190595 415.2654648 31.07382689 415.22265625 35.99609375 C415.20656115 37.69801874 415.1904286 39.39994339 415.17425919 41.10186768 C415.10942227 48.18777864 415.05322634 55.27367018 415.01939201 62.35980225 C414.97075115 72.47633648 414.87137837 82.58940058 414.70018947 92.70462704 C414.58361857 99.83869995 414.52543985 106.97185114 414.50963032 114.10685062 C414.4987293 118.35822804 414.46336081 122.60589556 414.36532211 126.85623169 C413.13285761 146.95192752 413.13285761 146.95192752 421.25689888 164.36282349 C423.7792418 166.66272826 426.404178 168.66209504 429.22662735 170.5776062 C432.15881519 172.7666276 434.1742914 175.42829506 436.41796875 178.30859375 C437.10632812 179.18257812 437.7946875 180.0565625 438.50390625 180.95703125 C439.01179688 181.60929688 439.5196875 182.2615625 440.04296875 182.93359375 C441.63416311 184.52478811 443.20115751 184.18129465 445.41796875 184.24609375 C470.4033544 183.92202909 492.55493794 172.38975618 509.94140625 155.0390625 C529.3605899 134.1700303 533.12521289 107.45605656 532.20703125 80.07128906 C531.87863803 73.79076873 530.83438412 67.97708559 529.04296875 61.93359375 C528.84429199 61.2365332 528.64561523 60.53947266 528.44091797 59.82128906 C523.4467182 42.54547294 515.70743612 28.57748588 504.04296875 14.93359375 C503.4603125 14.2478125 502.87765625 13.56203125 502.27734375 12.85546875 C487.55437887 -3.05723067 466.38791169 -11.36523389 445.1796875 -13.4453125 C435.93857751 -13.75839929 425.59893093 -12.23698988 419.04296875 -5.06640625 Z M-3.14453125 19.80859375 C-27.60807098 45.18005867 -36.56136511 83.13141464 -35.98657227 117.39526367 C-34.66338179 152.08952862 -21.96020155 185.51562413 1.41796875 211.18359375 C2.16771973 212.00766724 2.16771973 212.00766724 2.93261719 212.84838867 C5.42413249 215.4984626 7.62313836 217.60456014 11.04296875 218.93359375 C36.25929545 193.07518466 45.58831055 157.33484318 45.19140625 122.078125 C44.70663228 100.64078443 39.7502081 79.49525032 31.04296875 59.93359375 C30.74551758 59.25635254 30.44806641 58.57911133 30.14160156 57.88134766 C23.53395246 43.09092877 14.09211633 27.92911632 2.04296875 16.93359375 C-0.68743227 16.93359375 -1.22683494 17.9040624 -3.14453125 19.80859375 Z M261.04296875 31.93359375 C257.77982579 43.85149479 254.85074586 55.83783165 251.98046875 67.85546875 C251.50261743 69.85119861 251.0246695 71.84690534 250.54663086 73.84259033 C249.55029162 78.00412471 248.55540627 82.16600331 247.56152344 86.328125 C246.30065571 91.60761539 245.03570203 96.88611689 243.76957703 102.1643486 C242.78277326 106.2805429 241.79841736 110.39731981 240.81472778 114.51425934 C240.34993267 116.45809026 239.8843643 118.40173648 239.41793823 120.3451767 C236.42182863 132.83543629 233.62109545 145.35021336 231.04296875 157.93359375 C234.80458748 156.49629061 237.60742303 154.90898596 240.79296875 152.43359375 C252.30905314 143.94643943 264.28419671 137.42511691 277.70678711 132.4453125 C278.51897705 132.14238281 279.33116699 131.83945312 280.16796875 131.52734375 C280.89242187 131.26630859 281.616875 131.00527344 282.36328125 130.73632812 C284.24046159 130.0504147 284.24046159 130.0504147 285.04296875 127.93359375 C284.49325427 124.99420622 283.8669553 122.12194806 283.16870117 119.21704102 C282.95748123 118.31448578 282.74626129 117.41193054 282.52864075 116.48202515 C281.82555124 113.48632497 281.11227731 110.49315526 280.3984375 107.5 C279.90812039 105.4250648 279.41824252 103.35002575 278.92878723 101.27488708 C277.8999612 96.92005554 276.86617133 92.56644037 275.82885742 88.21362305 C274.49835771 82.62900018 273.17954884 77.04169578 271.86437511 71.45344639 C270.85400581 67.16564324 269.83774874 62.87925266 268.81966591 58.59327507 C268.33109974 56.53356262 267.84430795 54.47342848 267.35930443 52.41287422 C266.68060857 49.53364662 265.9940934 46.65639595 265.30541992 43.77954102 C265.00527481 42.49600487 265.00527481 42.49600487 264.69906616 41.1865387 C264.50976028 40.4027887 264.32045441 39.6190387 264.12541199 38.8115387 C263.96372119 38.13108773 263.80203039 37.45063677 263.63543987 36.74956608 C263.03317844 34.62719856 263.03317844 34.62719856 261.04296875 31.93359375 Z M616.04296875 31.93359375 C613.79118608 38.30875546 612.0306261 44.70447083 610.49926758 51.28686523 C610.2647438 52.27983109 610.03022003 53.27279694 609.78858948 54.29585266 C609.02164207 57.54785174 608.26068806 60.8012191 607.5 64.0546875 C606.966503 66.32396915 606.43270013 68.59317891 605.89860535 70.86231995 C604.78405123 75.60153629 603.67231161 80.34140084 602.56274414 85.08178711 C601.13798384 91.16830344 599.70753092 97.25346407 598.27516651 103.33819485 C597.1744961 108.01561769 596.07612031 112.69357682 594.97852135 117.37172127 C594.45156665 119.6170248 593.92405204 121.862197 593.39597511 124.10723686 C592.6612414 127.23300011 591.92943119 130.35943288 591.19848633 133.48608398 C590.97878174 134.41852936 590.75907715 135.35097473 590.53271484 136.31167603 C590.33511063 137.15966263 590.13750641 138.00764923 589.93391418 138.8813324 C589.76082639 139.61998252 589.58773859 140.35863264 589.40940571 141.1196661 C588.97696441 142.95189854 588.97696441 142.95189854 589.04296875 144.93359375 C591.83539989 143.62923447 594.14056041 142.16907411 596.54296875 140.24609375 C609.2288105 130.69112702 623.13512272 125.8984487 638.04296875 120.93359375 C635.89710621 111.69153976 633.749771 102.44982947 631.60064316 93.20853424 C630.60236485 88.91571517 629.60456175 84.6227869 628.60791016 80.32958984 C627.6429731 76.17309134 626.67670232 72.01690481 625.70957184 67.86091614 C625.34398808 66.28891149 624.97885535 64.71680186 624.61421967 63.14457703 C622.19464354 52.71369641 619.67256459 42.31356575 617.04296875 31.93359375 C616.71296875 31.93359375 616.38296875 31.93359375 616.04296875 31.93359375 Z " fill="#FEFEFE" transform="translate(665.95703125,472.06640625)"/>
<path d="M0 0 C0.71542969 0.55558594 1.43085938 1.11117188 2.16796875 1.68359375 C5.35788815 4.28200491 7.97797345 7.10065924 10.625 10.25 C13.15621771 13.2440363 15.06879345 15.04698023 19 16 C22.75615856 12.78728565 24.07406149 9.77781552 25.625 5.125 C26.02976563 3.93132812 26.43453125 2.73765625 26.8515625 1.5078125 C27.23054687 0.35023438 27.60953125 -0.80734375 28 -2 C28.66666667 -4 29.33333333 -6 30 -8 C30.99 -8 31.98 -8 33 -8 C32.36717793 -1.74031303 31.06637834 4.12080929 29.43969727 10.19213867 C29.17941742 11.18013962 28.91913757 12.16814056 28.65097046 13.18608093 C27.79456637 16.43142158 26.93067031 19.67471324 26.06640625 22.91796875 C25.46691476 25.18132519 24.86779414 27.44477989 24.26902771 29.70832825 C23.01554533 34.44241236 21.75851326 39.17553467 20.4987793 43.90795898 C18.884589 49.97258318 17.27783332 56.03914615 15.67353916 62.10639477 C14.43808068 66.77644088 13.19942755 71.44563479 11.95973015 76.11455727 C11.3660522 78.35144742 10.77319841 80.58855648 10.18118477 82.82588768 C9.35382365 85.95011695 8.5223457 89.07322126 7.68969727 92.19604492 C7.44598892 93.11927551 7.20228058 94.0425061 6.95118713 94.99371338 C5.84947051 99.10939318 4.72349323 103.09004544 3 107 C2.01 107 1.02 107 0 107 C0.57980878 101.87178838 1.44603331 96.98047755 2.5625 91.9375 C7.51114339 65.93309967 5.42168136 36.70043626 -9 14 C-22.23493302 -4.94734639 -42.43591068 -16.62894605 -65 -21 C-81.917989 -23.54125255 -98.50281952 -22.33607355 -115 -18 C-115.67611328 -17.82339844 -116.35222656 -17.64679688 -117.04882812 -17.46484375 C-145.25675476 -9.77953579 -168.20727074 9.51119304 -182.6875 34.625 C-201.43575333 68.34072496 -204.46476662 108.78106753 -195.1875 145.8125 C-185.83003455 178.14148776 -167.84091292 207.97270123 -138.04492188 225.12548828 C-110.33302279 240.34265281 -76.90858858 246.38180241 -45.96875 238.18359375 C-44.64347585 237.79705546 -43.32035227 237.40303014 -42 237 C-40.8759375 236.66097656 -39.751875 236.32195312 -38.59375 235.97265625 C-22.47477685 230.36692425 -8.17150818 220.65120396 5 210 C5.88848633 209.28505371 5.88848633 209.28505371 6.79492188 208.55566406 C18.91598417 198.71152372 30.10574104 187.71581187 40.31860352 175.91064453 C42.8594738 173.02334225 45.52911477 170.27957802 48.25 167.5625 C48.80429687 167.00828369 49.35859375 166.45406738 49.9296875 165.88305664 C55.71246972 160.17866545 61.83722067 154.76622153 68.6135025 150.26329327 C71.22926446 148.20507551 71.22926446 148.20507551 71.62361908 145.1903429 C71.62290657 144.09956786 71.62219406 143.00879282 71.62145996 141.88496399 C71.63266876 140.63034866 71.64387756 139.37573334 71.65542603 138.08309937 C71.64251489 136.69512479 71.62910076 135.30715482 71.61523438 133.91918945 C71.61873596 132.45538184 71.62439498 130.99157804 71.63204956 129.52778625 C71.64630844 125.55208672 71.62922193 121.57707801 71.60576439 117.60144448 C71.5856525 113.43629992 71.59153545 109.27118399 71.59387207 105.10600281 C71.59381847 98.10579044 71.5740531 91.10584772 71.54199219 84.10571289 C71.50517014 76.02708925 71.49630652 67.9488198 71.5032897 59.87012321 C71.50961114 52.08851446 71.49880548 44.30702648 71.47932434 36.52544212 C71.47117613 33.21984312 71.46843607 29.91430608 71.47001648 26.60869789 C71.47090005 22.70732908 71.45655308 18.80629307 71.43078995 14.90501213 C71.42366906 13.4784672 71.42152471 12.05188676 71.42490768 10.62532806 C71.51871184 -2.50594927 71.51871184 -2.50594927 65.625 -13.8125 C61.56615539 -16.80757618 56.53513087 -17.82965451 51.73046875 -19.10546875 C50.37888672 -19.54826172 50.37888672 -19.54826172 49 -20 C48.67 -20.66 48.34 -21.32 48 -22 C70.44 -22 92.88 -22 116 -22 C115.67 -21.34 115.34 -20.68 115 -20 C112.95764104 -19.330901 110.88968451 -18.73906877 108.8125 -18.1875 C103.28886677 -16.52980503 99.73801862 -15.42660099 96 -11 C92.44664279 -3.80122093 92.55852118 3.64235632 92.56762695 11.50610352 C92.55859413 12.84732456 92.54826321 14.18853739 92.53674316 15.52973938 C92.50932515 19.14481587 92.49990953 22.75973508 92.49388909 26.37490201 C92.48446553 30.16258981 92.45825913 33.95016194 92.43388367 37.73777771 C92.39032399 44.89856347 92.36171253 52.05932664 92.33856028 59.22020429 C92.31145191 67.37751943 92.26754404 75.53471761 92.22227156 83.69194901 C92.12957627 100.46123991 92.0578266 117.23055182 92 134 C92.8117997 133.60970108 92.8117997 133.60970108 93.63999939 133.21151733 C96.12174424 132.0205913 98.60576411 130.83448536 101.08984375 129.6484375 C102.3666803 129.03440063 102.3666803 129.03440063 103.66931152 128.40795898 C125.49732415 118.00665593 149.33323583 116.07263929 173.20227051 118.5100708 C174.1011927 118.60142933 175.0001149 118.69278786 175.92627716 118.78691483 C176.6106057 118.85723293 177.29493423 118.92755104 178 119 C177.93939077 103.23121778 177.86183831 87.46261498 177.76428509 71.69402313 C177.71937843 64.37187645 177.67995206 57.04977784 177.65356445 49.72753906 C177.63054268 43.3431775 177.5970983 36.95896875 177.55129844 30.57472849 C177.52742224 27.19637719 177.50865692 23.8181767 177.50238609 20.43974304 C177.49275038 16.66207454 177.46469542 12.88495504 177.43237305 9.10742188 C177.43452568 7.43938004 177.43452568 7.43938004 177.4367218 5.73764038 C177.36046532 -0.57253774 176.58099362 -5.23316731 174 -11 C173.67 -11.99 173.34 -12.98 173 -14 C168.22545347 -16.36984791 162.87392909 -17.53393963 157.765625 -19 C155 -20 155 -20 154 -22 C176.44 -22 198.88 -22 222 -22 C221.67 -21.34 221.34 -20.68 221 -20 C218.95764104 -19.330901 216.88968451 -18.73906877 214.8125 -18.1875 C208.51603379 -16.33031863 204.45182403 -14.61935928 200.6875 -9.0625 C198.78952717 -3.3685815 198.85361063 2.38958494 198.85955811 8.31672668 C198.85658698 9.24655308 198.85361586 10.17637947 198.8505547 11.13438243 C198.84189305 14.24560331 198.84036161 17.3567856 198.83886719 20.46801758 C198.83423728 22.70057761 198.82921239 24.93313686 198.82382202 27.16569519 C198.8107141 33.22773403 198.80425639 39.28976181 198.79981136 45.3518126 C198.79687852 49.13998135 198.79277335 52.92814709 198.78830719 56.71631432 C198.77620275 67.21387605 198.7658188 77.711436 198.7624321 88.2090044 C198.76221253 88.88014498 198.76199297 89.55128556 198.76176675 90.24276374 C198.76154847 90.91546415 198.76133019 91.58816455 198.7611053 92.28124982 C198.76066184 93.64428699 198.76021528 95.00732416 198.75976562 96.37036133 C198.7595442 97.04646769 198.75932277 97.72257406 198.75909463 98.41916849 C198.75514691 109.37350004 198.73769131 120.32776506 198.7144061 131.28207091 C198.69066814 142.54061895 198.67848694 153.79913479 198.67706418 165.05771178 C198.67601636 171.37423047 198.67011313 177.69065523 198.65224457 184.00715065 C198.63576248 189.94890439 198.63360916 195.89049358 198.64238358 201.83226204 C198.64315382 204.01028128 198.63881288 206.18830937 198.62892532 208.3663063 C198.61619732 211.34517358 198.62208746 214.32345877 198.63250732 217.30232239 C198.62445092 218.15915031 198.61639452 219.01597823 198.60809398 219.89877063 C198.66528173 226.91448909 199.88597507 233.2251076 204.19921875 238.88671875 C207.60274158 241.45478828 210.75702933 242.62884588 214.8125 243.8125 C215.50537109 244.02841797 216.19824219 244.24433594 216.91210938 244.46679688 C218.60380878 244.99180703 220.30136365 245.49788737 222 246 C222 246.33 222 246.66 222 247 C199.56 247 177.12 247 154 247 C156.41974004 244.58025996 157.9476815 244.39193189 161.25 243.625 C167.22482759 242.05308855 171.50018415 240.48245383 174.8125 235 C176.3444295 231.12986231 177.1216427 227.88177242 177.15821838 223.72259521 C177.1680072 222.87568115 177.17779602 222.02876709 177.18788147 221.15618896 C177.19363693 220.23549622 177.1993924 219.31480347 177.20532227 218.36621094 C177.21522186 217.39026978 177.22512146 216.41432861 177.23532104 215.40881348 C177.2669003 212.1840253 177.29167944 208.9592224 177.31640625 205.734375 C177.33697885 203.49806333 177.35797541 201.26175553 177.37937927 199.02545166 C177.43456824 193.14004647 177.48399158 187.25460637 177.53222656 181.36914062 C177.58246472 175.36324965 177.63813872 169.35740936 177.69335938 163.3515625 C177.80090214 151.56775163 177.90235578 139.78389676 178 128 C176.11927232 127.83677297 174.23837962 127.6754467 172.35742188 127.51489258 C171.31001831 127.42484451 170.26261475 127.33479645 169.18347168 127.24201965 C144.29047631 125.34955925 121.31719698 128.65759812 99.24584961 140.6159668 C98.64415703 140.94146263 98.04246445 141.26695847 97.42253876 141.60231781 C95.94771956 142.40036431 94.47377163 143.20002058 93 144 C92.93032504 154.66637731 92.87710006 165.33269999 92.84456348 175.999259 C92.82894334 180.95279447 92.80777203 185.90617362 92.77368164 190.85961914 C92.74095764 195.64476103 92.72311955 200.42975305 92.71536827 205.21499825 C92.7098481 207.03574544 92.69906877 208.85648493 92.68280983 210.67716789 C92.66086186 213.23799905 92.65804026 215.79821998 92.65942383 218.35913086 C92.648638 219.10288467 92.63785217 219.84663849 92.6267395 220.6129303 C92.66569105 227.32600872 94.08120744 233.47815834 98.1875 238.875 C101.63342058 241.47858444 104.89614749 242.76110113 109 244 C109.68320312 244.20625 110.36640625 244.4125 111.0703125 244.625 C112.70810047 245.10241188 114.35337033 245.5540378 116 246 C116 246.33 116 246.66 116 247 C93.56 247 71.12 247 48 247 C50.41974004 244.58025996 51.9476815 244.39193189 55.25 243.625 C61.22482759 242.05308855 65.50018415 240.48245383 68.8125 235 C70.6998149 230.23204657 71.13949886 226.36494629 71.20532227 221.21191406 C71.21522186 220.53833359 71.22512146 219.86475311 71.23532104 219.17076111 C71.26681658 216.95241771 71.29164597 214.73405293 71.31640625 212.515625 C71.33698611 210.97433934 71.35798285 209.4330592 71.37937927 207.89178467 C71.4344934 203.84108962 71.48394954 199.79034453 71.53222656 195.73956299 C71.58251956 191.60367394 71.63816487 187.46785728 71.69335938 183.33203125 C71.80081052 175.22141543 71.90228428 167.11073893 72 159 C66.0908186 163.75191256 60.27387311 168.47131352 54.921875 173.84765625 C54.17106659 174.59915199 54.17106659 174.59915199 53.40509033 175.36582947 C52.36792113 176.40596856 51.3331286 177.44848321 50.30078125 178.4934082 C48.74275872 180.06982678 47.17674193 181.63795518 45.609375 183.20507812 C40.74944945 188.0827154 36.02358432 193.02512788 31.5390625 198.25415039 C4.60795037 228.80370351 -35.49931952 250.90130929 -76.22680664 253.73095703 C-111.85307832 255.58142805 -148.04435928 245.45960786 -175.0625 221.625 C-176.71605012 220.09161308 -178.36187677 218.54985669 -180 217 C-180.82371094 216.24074219 -181.64742187 215.48148438 -182.49609375 214.69921875 C-206.57131326 191.75076459 -220.41814467 156.7776582 -221.23828125 123.7734375 C-221.49617644 107.49329607 -221.2317023 91.84136533 -217 76 C-216.76925781 75.13552246 -216.53851563 74.27104492 -216.30078125 73.38037109 C-210.93535674 54.12232954 -202.06873894 36.17935094 -189 21 C-187.89205078 19.68515625 -187.89205078 19.68515625 -186.76171875 18.34375 C-141.01716454 -34.30717563 -55.01215673 -43.39930632 0 0 Z " fill="#FEFEFE" transform="translate(221,478)"/>
<path d="M0 0 C4.58764478 3.03125092 8.82216361 6.43167799 13 10 C13.66257812 10.56074219 14.32515625 11.12148437 15.0078125 11.69921875 C28.45365652 24.11317241 37.72974393 42.44694278 39.31640625 60.625 C39.64460977 70.95811727 37.61637024 79.76725953 33 89 C40.92 96.92 48.84 104.84 57 113 C57.99 107.72 58.98 102.44 60 97 C64.84832942 85.49931161 71.88813541 76.45767944 81 68 C81.70125 67.319375 82.4025 66.63875 83.125 65.9375 C85 65 85 65 87.3515625 65.73046875 C99.66071115 71.63087186 108.43113067 85.59878323 113 98 C114.44162704 102.60595305 114.06281431 107.22611242 114 112 C120.04906099 106.82105951 125.86550798 101.4382165 131.5625 95.875 C132.39330078 95.08996094 133.22410156 94.30492187 134.08007812 93.49609375 C134.85931641 92.73167969 135.63855469 91.96726562 136.44140625 91.1796875 C137.14982666 90.49632324 137.85824707 89.81295898 138.58813477 89.10888672 C140.28130115 87.05644311 140.28130115 87.05644311 139.76953125 84.37524414 C139.02887554 82.08912758 138.24895866 79.82439202 137.4375 77.5625 C132.80138245 62.02462089 137.4783138 45.32897757 144.89453125 31.4453125 C156.80062524 11.29299681 175.26740904 -3.46757676 197.76953125 -10.11328125 C202.30965689 -11.20011913 206.72179744 -11.34531856 211.375 -11.3125 C212.62953979 -11.30404053 212.62953979 -11.30404053 213.90942383 -11.29541016 C225.27064518 -11.07205573 232.74099375 -8.06701219 240.91015625 -0.1484375 C249.7817655 9.3070781 251.43105872 19.2399812 251.203125 31.87890625 C250.45364575 51.8452162 237.67469321 70.07924002 223.77734375 83.5 C209.81032662 96.07227983 190.93967567 105.09905396 171.80859375 104.3203125 C164.20150826 103.45274503 157.90295945 101.51237557 151.75390625 96.890625 C150.06091844 95.83976806 150.06091844 95.83976806 148.21557617 96.13745117 C145.00655995 97.38675743 143.20346176 99.46159414 140.796875 101.91015625 C140.3142218 102.39705429 139.8315686 102.88395233 139.33428955 103.38560486 C137.7989915 104.9376545 136.27447075 106.49982136 134.75 108.0625 C133.7090278 109.11852357 132.6673686 110.17387038 131.625 111.22851562 C129.07532367 113.81121415 126.53520804 116.40308882 124 119 C124.79664063 119.12044678 125.59328125 119.24089355 126.4140625 119.36499023 C142.34846471 121.87654861 156.77561288 129.05976005 167 142 C168.39844444 144.30234807 169.69922738 146.63954625 171 149 C159.17597335 162.48748287 147.27479411 174.21821543 128.5703125 176.1640625 C127.83820557 176.24760986 127.10609863 176.33115723 126.35180664 176.41723633 C124.56876784 176.61955665 122.78449292 176.81093414 121 177 C121.77047668 177.75049118 121.77047668 177.75049118 122.55651855 178.5161438 C127.39842198 183.23774276 132.22572242 187.97373306 137.03720856 192.72633553 C139.51129171 195.16912768 141.99063223 197.60603638 144.48291016 200.03027344 C147.3490518 202.81865198 150.19050219 205.63106585 153.03125 208.4453125 C154.37648743 209.74409836 154.37648743 209.74409836 155.74890137 211.06912231 C156.5697522 211.88951996 157.39060303 212.7099176 158.23632812 213.55517578 C159.32886902 214.62773117 159.32886902 214.62773117 160.44348145 215.72195435 C162.45764013 218.66978008 162.41883984 220.49977603 162 224 C160.3125 226 160.3125 226 158 227 C154.17202617 225.86374643 151.84648648 224.21320438 149.06762695 221.39233398 C148.33369217 220.65494492 147.59975739 219.91755585 146.84358215 219.15782166 C146.06633286 218.36195145 145.28908356 217.56608124 144.48828125 216.74609375 C143.67884567 215.93004166 142.8694101 215.11398956 142.03544617 214.27320862 C139.45393498 211.66830828 136.88280708 209.05345231 134.3125 206.4375 C131.72976924 203.81974103 129.14492419 201.20411931 126.55741882 198.59107971 C124.94829317 196.96493647 123.34225873 195.33572759 121.73957825 193.70323181 C121.01509995 192.9689949 120.29062164 192.234758 119.54418945 191.47827148 C118.90641068 190.82922348 118.2686319 190.18017548 117.61152649 189.51145935 C116.05753308 187.90973183 116.05753308 187.90973183 114 187 C114.0825 187.928125 114.165 188.85625 114.25 189.8125 C114.19042792 204.58637614 102.86980009 217.20203251 93 227 C88.68528907 231.02185725 88.68528907 231.02185725 85.91796875 230.93359375 C74.6015643 225.42520136 65.53138814 212.40297706 60.75247192 201.21159363 C59.75054036 198.26681204 59.08805928 195.2853001 58.40576172 192.2512207 C58.14092987 191.08057571 57.87609802 189.90993073 57.60324097 188.70381165 C57.40417145 187.8115538 57.20510193 186.91929596 57 186 C56.50998001 186.49890244 56.01996002 186.99780487 55.51509094 187.51182556 C50.89113989 192.21598648 46.25756753 196.9104296 41.61300373 201.59424496 C39.22561881 204.0024881 36.84209016 206.41430212 34.46704102 208.8347168 C31.73525179 211.61835485 28.98727227 214.38568777 26.23828125 217.15234375 C25.38913651 218.02213364 24.53999176 218.89192352 23.66511536 219.78807068 C22.46443672 220.9892025 22.46443672 220.9892025 21.23950195 222.21459961 C20.54000931 222.9229747 19.84051666 223.63134979 19.11982727 224.3611908 C16.68564526 226.24302331 15.04926351 226.7525542 12 227 C9.6875 225.875 9.6875 225.875 8 224 C7.54271058 220.83865801 7.65914084 219.47162246 9.54978943 216.85566711 C10.63780602 215.78882942 10.63780602 215.78882942 11.74780273 214.70043945 C12.56542587 213.88642166 13.38304901 213.07240387 14.22544861 212.23371887 C15.11913651 211.36897446 16.0128244 210.50423004 16.93359375 209.61328125 C17.84125992 208.71506149 18.74892609 207.81684174 19.68409729 206.8914032 C22.09671392 204.50755031 24.51927158 202.13483253 26.94775391 199.76721191 C30.3709224 196.42454566 33.77441087 193.06182498 37.18019104 189.70146179 C38.99471717 187.91344256 40.81310493 186.12933251 42.63560486 184.34944153 C43.45638016 183.54488022 44.27715546 182.74031891 45.12280273 181.91137695 C45.84894272 181.2025386 46.5750827 180.49370026 47.32322693 179.76338196 C49.0754378 178.0926671 49.0754378 178.0926671 50 176 C49.41734375 176.04640625 48.8346875 176.0928125 48.234375 176.140625 C35.09037581 176.71929163 24.07857344 171.09309196 14.33886719 162.54150391 C12.65402801 160.993418 11.0066449 159.41648991 9.375 157.8125 C8.86582031 157.31363281 8.35664062 156.81476563 7.83203125 156.30078125 C5.00705277 153.40652537 3.20328876 150.87175852 2 147 C12.60937356 134.76034445 24.22681898 122.648397 41 120 C44.5 119.875 44.5 119.875 47 120 C42.53524599 114.59529777 37.73264699 109.48798124 32.875 104.4375 C32.2773584 103.79345215 31.6797168 103.1494043 31.06396484 102.48583984 C29.44137115 100.82361577 27.90644992 99.32726786 26 98 C23.35093806 97.79543055 23.35093806 97.79543055 21 99 C20.175 99.309375 19.35 99.61875 18.5 99.9375 C17.675 100.288125 16.85 100.63875 16 101 C2.92532637 106.55673629 -11.21042071 104.26611478 -24.09814453 99.17041016 C-33.50050115 95.12390958 -41.47261027 89.98886423 -49 83 C-49.80050781 82.2678125 -50.60101562 81.535625 -51.42578125 80.78125 C-66.20637037 66.67137669 -75.7452146 47.85319316 -76.375 27.3125 C-76.04875966 16.12517497 -72.84054506 7.22252164 -65.1484375 -0.97265625 C-46.71236019 -18.2702507 -19.54738531 -11.75372894 0 0 Z M-61 10 C-66.58049584 18.5711483 -66.67371036 28.15782919 -64.78515625 37.92578125 C-61.16582649 52.09698781 -53.13904323 63.68370077 -43 74 C-42.38640625 74.62648438 -41.7728125 75.25296875 -41.140625 75.8984375 C-29.37664893 87.00885934 -13.85620209 93.66824828 2.31738281 93.4753418 C10.70626579 93.10416133 17.18546501 90.07883204 23 84 C29.11768549 74.99755225 29.89589639 65.79502498 28.0625 55.25 C23.34227432 36.05159332 10.94498038 19.4369614 -5.75146484 8.89404297 C-23.25118527 -1.64634698 -45.90687005 -7.61891905 -61 10 Z M166 21 C154.20044268 33.64802047 146.68419667 48.62140448 146 66 C149.39221284 62.8961632 151.70085203 59.46147756 154.0625 55.5625 C168.2367333 33.01124781 188.5084064 15.0007076 211.12109375 1.2421875 C211.74113281 0.83226563 212.36117187 0.42234375 213 0 C213 -0.33 213 -0.66 213 -1 C194.86245493 -1.42551425 178.54135881 8.68321098 166 21 Z M201 20 C200.11957031 20.65484375 199.23914063 21.3096875 198.33203125 21.984375 C180.80108718 35.66965055 158.74968661 56.34882407 153.2890625 78.94140625 C152.9316967 81.60851228 152.9316967 81.60851228 153 85 C159.28026328 85.38379387 163.23299522 84.51060665 168.75 81.5625 C169.44319336 81.20196533 170.13638672 80.84143066 170.85058594 80.4699707 C181.62702017 74.70042978 190.70535649 66.84370701 199.49560547 58.43701172 C200.49734024 57.4801453 201.50419302 56.52860794 202.51611328 55.58251953 C213.0590646 45.71057572 221.65016907 34.72875462 228.625 22.0625 C229.1214502 21.17727661 229.1214502 21.17727661 229.62792969 20.27416992 C231.97508616 15.79432116 232.68862025 11.97670746 233 7 C231.91448697 5.69522508 231.91448697 5.69522508 229.28515625 5.81640625 C218.53949573 6.41693662 209.30721971 13.75148107 201 20 Z M239 23 C238.61070312 23.78761719 238.22140625 24.57523438 237.8203125 25.38671875 C231.31540307 38.05180739 222.80569944 48.67741097 213 59 C212.5054834 59.52706543 212.0109668 60.05413086 211.50146484 60.59716797 C200.10134441 72.67984778 187.66818156 82.81034226 173.0625 90.79296875 C172.381875 91.19128906 171.70125 91.58960938 171 92 C171 92.33 171 92.66 171 93 C187.80332851 94.08994563 201.85198586 87.7836196 214.58984375 77.125 C224.38105391 68.49223124 231.7815619 59.03881533 237 47 C237.43119141 46.01 237.43119141 46.01 237.87109375 45 C240.48619546 38.19322809 240.70184142 31.22777524 241 24 C240.01 23.505 240.01 23.505 239 23 Z M82.94921875 80.765625 C74.70197019 89.82477886 68.61170339 99.52475984 68.7109375 112.01171875 C69.34567767 118.57355974 72.37353405 124.56030107 76 130 C77.2065625 129.7525 77.2065625 129.7525 78.4375 129.5 C84.33981925 128.67160432 90.18891148 128.50036425 96 130 C101.08818265 123.6741513 103.41243527 117.61658002 104.4375 109.5625 C103.0578401 98.32812653 96.58993142 86.48310552 88 79 C84.9278926 78.67377297 84.9278926 78.67377297 82.94921875 80.765625 Z M16 147 C19.68391744 155.61499443 28.73648965 160.52455251 37 164 C45.01944967 166.67314989 53.31346388 165.82056816 60.8125 162.125 C64.5915857 160.23306592 64.5915857 160.23306592 67 157 C66.855625 156.443125 66.71125 155.88625 66.5625 155.3125 C65.17370511 149.60300992 66.19534617 143.73315854 67 138 C65.96875 137.21625 64.9375 136.4325 63.875 135.625 C63.29492188 135.18414062 62.71484375 134.74328125 62.1171875 134.2890625 C45.69882966 124.29264537 27.63893649 134.87385222 16 147 Z M105 139 C105.33 139.804375 105.66 140.60875 106 141.4375 C107.56797682 147.02341742 107.58130504 152.40850539 106 158 C107.03125 158.78375 108.0625 159.5675 109.125 160.375 C109.70507812 160.81585938 110.28515625 161.25671875 110.8828125 161.7109375 C117.70124356 165.86238077 125.27416464 166.01739396 133 165 C142.57675372 161.73982852 149.96589476 156.14755855 157 149 C154.2206804 141.97183551 146.08501502 136.84109998 139.5625 133.5 C127.68687742 128.49973786 114.58217382 130.05663777 105 139 Z M77 143 C75.26874879 146.46250243 75.52184776 150.21408229 76 154 C78.04281054 157.4290034 80.09708087 159.9158558 84 161 C89.22758722 161 91.03598706 160.88196928 94.9375 157.3125 C97.06879945 153.88950391 98 152.01306953 98 148 C96.48563247 143.93511874 94.99016742 140.8900793 91 139 C85.12990198 138.10792131 81.2384448 138.4966524 77 143 Z M75 168 C74.18501438 169.6029053 73.37310073 171.20737278 72.5625 172.8125 C72.11003906 173.70582031 71.65757812 174.59914063 71.19140625 175.51953125 C68.25907394 181.62455098 68.03819483 187.98737333 69.61328125 194.55859375 C72.58903813 202.75175697 78.18257538 211.48747306 85 217 C87.06210221 217.22215463 87.06210221 217.22215463 89 216 C97.274111 207.84430203 103.50643136 198.37672755 104.0703125 186.6015625 C103.88749789 179.8374219 101.54114311 174.66582897 98 169 C96.515 169.14308594 96.515 169.14308594 95 169.2890625 C87.98410937 169.90072246 81.76689567 170.3476985 75 168 Z " fill="#FEFEFE" transform="translate(629,90)"/>
<path d="M0 0 C11.8314447 8.06185455 20.77862063 17.29721759 28.91796875 28.98828125 C26.23732392 34.00266393 23.3605468 38.15388385 19.48046875 42.30078125 C18.69929687 43.1371814 18.69929687 43.1371814 17.90234375 43.99047852 C5.24638753 57.20334212 -10.70009987 67.72774419 -29.45703125 68.42578125 C-50.18642557 67.86088069 -65.88660215 54.7191942 -79.68359375 40.56640625 C-87.10917796 32.58450791 -87.10917796 32.58450791 -87.04296875 28.69140625 C-85.69694825 24.90503963 -83.21000275 22.43645001 -80.45703125 19.61328125 C-79.9050708 19.03602295 -79.35311035 18.45876465 -78.78442383 17.86401367 C-77.69669612 16.72923698 -76.60510474 15.59814838 -75.50927734 14.47119141 C-74.3992924 13.31791591 -73.32165693 12.13347072 -72.2578125 10.9375 C-53.01816447 -10.22106305 -24.45223274 -15.0847988 0 0 Z M-69.08203125 22.98828125 C-69.08203125 23.31828125 -69.08203125 23.64828125 -69.08203125 23.98828125 C-67.83329224 24.01015503 -67.83329224 24.01015503 -66.55932617 24.0324707 C-63.46713472 24.09356755 -60.37561043 24.16772681 -57.28393555 24.25073242 C-55.28912495 24.30029444 -53.29395868 24.33479258 -51.29882812 24.36914062 C-50.04521484 24.40458984 -48.79160156 24.44003906 -47.5 24.4765625 C-46.34266357 24.50274658 -45.18532715 24.52893066 -43.99291992 24.5559082 C-41.08203125 24.98828125 -41.08203125 24.98828125 -39.16918945 26.35620117 C-38.08203125 27.98828125 -38.08203125 27.98828125 -38.26953125 30.61328125 C-39.08203125 32.98828125 -39.08203125 32.98828125 -41.08203125 33.98828125 C-43.18578121 34.14269334 -45.29398244 34.23820764 -47.40234375 34.3046875 C-48.65917969 34.34658203 -49.91601562 34.38847656 -51.2109375 34.43164062 C-53.18900391 34.49061523 -53.18900391 34.49061523 -55.20703125 34.55078125 C-56.54688876 34.59397637 -57.88673281 34.63759098 -59.2265625 34.68164062 C-62.5116094 34.78799106 -65.79673406 34.89001933 -69.08203125 34.98828125 C-60.7442856 45.24533679 -49.41388929 54.44650645 -36.08203125 56.98828125 C-20.72452459 58.38987899 -9.84119384 53.53906178 1.91796875 43.98828125 C2.58699219 43.45976562 3.25601563 42.93125 3.9453125 42.38671875 C7.90697605 39.14456959 12.37687272 35.47618473 14.91796875 30.98828125 C14.59906017 25.18886969 8.79134859 20.77830285 4.91796875 16.98828125 C-7.183257 6.57827158 -19.01794913 0.90856445 -34.99707031 1.77490234 C-48.28025356 3.13432883 -60.69667803 13.06758167 -69.08203125 22.98828125 Z " fill="#FEFEFE" transform="translate(918.08203125,209.01171875)"/>
<path d="M0 0 C4.16361683 3.49620764 8.09316724 7.22171824 12 11 C12.70511719 11.66515625 13.41023437 12.3303125 14.13671875 13.015625 C17.96786329 16.70549089 21.24344619 20.43445776 24 25 C23.25451894 33.9275902 11.27612582 43.43304094 5 49 C-8.45493853 59.50957885 -22.57660569 66.73377757 -40 65 C-52.94510698 62.16921419 -63.02902145 56.54655304 -73 48 C-73.75152344 47.39414062 -74.50304687 46.78828125 -75.27734375 46.1640625 C-81.9499541 40.60550836 -86.90919313 33.97196097 -92 27 C-89.31943372 21.98576426 -86.44287764 17.83398992 -82.5625 13.6875 C-81.77915283 12.85001221 -81.77915283 12.85001221 -80.97998047 11.99560547 C-58.58861189 -11.35567888 -27.61924743 -21.40591891 0 0 Z M-75 21 C-76.43515537 22.95318033 -77.71506663 24.94111838 -79 27 C-68.7023089 39.48115568 -54.55070358 52.69642875 -37.7109375 54.31640625 C-21.32901384 54.86960847 -9.41957118 47.45859522 2.24194336 36.69506836 C3.51916383 35.48883959 4.76309268 34.24753367 6 33 C6 32.67 6 32.34 6 32 C5.16750732 31.98541748 4.33501465 31.97083496 3.47729492 31.95581055 C0.38510347 31.8947137 -2.70642082 31.82055444 -5.7980957 31.73754883 C-7.7929063 31.68798681 -9.78807257 31.65348867 -11.78320312 31.61914062 C-13.03681641 31.58369141 -14.29042969 31.54824219 -15.58203125 31.51171875 C-16.73936768 31.48553467 -17.8967041 31.45935059 -19.08911133 31.43237305 C-22 31 -22 31 -23.9128418 29.63208008 C-25 28 -25 28 -24.8125 25.375 C-24 23 -24 23 -22 22 C-19.89625004 21.84558791 -17.78804881 21.75007361 -15.6796875 21.68359375 C-14.42285156 21.64169922 -13.16601562 21.59980469 -11.87109375 21.55664062 C-10.55238281 21.51732422 -9.23367188 21.47800781 -7.875 21.4375 C-6.53514249 21.39430488 -5.19529844 21.35069027 -3.85546875 21.30664062 C-0.57042185 21.20029019 2.71470281 21.09826192 6 21 C-2.11904765 11.19681019 -12.94881058 1.23941073 -26 -1 C-46.54673468 -2.61967503 -60.87500287 6.40116111 -75 21 Z " fill="#FEFEFE" transform="translate(576,212)"/>
<path d="M0 0 C16.44660433 8.78144485 30.00517674 26.60908353 35.8984375 43.9453125 C39.80890971 57.73138402 37.31832209 71.13763516 30.40234375 83.5703125 C23.20076033 95.12669957 12.74973717 108.64001445 0.58984375 115.3828125 C-7.97976825 114.92644263 -17.72852308 102.8442232 -23.08740234 96.94384766 C-34.26227529 83.75593004 -40.37805765 68.68558541 -39.58935547 51.40869141 C-37.86449452 31.90883292 -21.84717792 15.76011013 -8.17578125 3.35546875 C-3.15368133 -0.80758776 -3.15368133 -0.80758776 0 0 Z M-1.41015625 12.3828125 C-14.72355999 23.92291451 -27.9409786 37.42357884 -29.40234375 55.9765625 C-29.44896638 70.336334 -22.03598729 82.22756076 -12.41015625 92.3828125 C-10.45162682 94.11012665 -8.44726652 95.74668514 -6.41015625 97.3828125 C-6.39033691 96.51479004 -6.37051758 95.64676758 -6.35009766 94.75244141 C-6.27205753 91.53554983 -6.18536744 88.31904205 -6.09277344 85.10253906 C-6.05446298 83.70972678 -6.01961366 82.31681485 -5.98828125 80.92382812 C-5.94267718 78.92294942 -5.88364002 76.92239104 -5.82421875 74.921875 C-5.79279785 73.71740723 -5.76137695 72.51293945 -5.72900391 71.27197266 C-5.41015625 68.3828125 -5.41015625 68.3828125 -3.41015625 66.3828125 C-0.91015625 66.0703125 -0.91015625 66.0703125 1.58984375 66.3828125 C3.94694017 69.91845713 3.8899411 71.60306505 4.00390625 75.80078125 C4.06191406 77.68120117 4.06191406 77.68120117 4.12109375 79.59960938 C4.15203125 80.90994141 4.18296875 82.22027344 4.21484375 83.5703125 C4.25303713 84.9056241 4.29208966 86.24091142 4.33203125 87.57617188 C4.42643528 90.84491138 4.51201392 94.11364314 4.58984375 97.3828125 C14.84689929 89.04506685 24.04806895 77.71467054 26.58984375 64.3828125 C27.98443288 49.1021002 23.20368335 38.02968628 13.58984375 26.3828125 C9.0579511 20.94454132 4.80348864 15.88794552 -1.41015625 12.3828125 Z " fill="#FEFEFE" transform="translate(716.41015625,0.6171875)"/>
<path d="M0 0 C4.58980814 -0.07447267 9.17926014 -0.12875322 13.76953125 -0.16479492 C15.32916394 -0.17982869 16.88875472 -0.20026135 18.44824219 -0.22631836 C20.69737116 -0.26294211 22.94593847 -0.27978021 25.1953125 -0.29296875 C25.8861795 -0.30845261 26.57704651 -0.32393646 27.28884888 -0.33988953 C33.07750974 -0.34187621 36.96244776 1.23779266 41.3125 5 C44.33957983 8.58765017 44.33637072 12.21869696 44.28515625 16.7109375 C43.84223476 20.26644424 42.32825076 22.34838108 40 25 C38.68939589 25.71030916 37.35855654 26.38636627 36 27 C36.56589844 27.47050781 37.13179688 27.94101562 37.71484375 28.42578125 C38.81505859 29.35970703 38.81505859 29.35970703 39.9375 30.3125 C40.66839844 30.92738281 41.39929688 31.54226563 42.15234375 32.17578125 C45.06157114 35.04810512 45.19822906 37.8972167 45.3125 41.8125 C45.25608549 46.65004408 44.31583965 49.3256912 41 53 C35.52203659 57.29353889 28.94211211 57.1261094 22.2265625 57.1328125 C20.99035156 57.13410156 19.75414062 57.13539063 18.48046875 57.13671875 C17.20816406 57.13285156 15.93585938 57.12898437 14.625 57.125 C13.32949219 57.12886719 12.03398437 57.13273438 10.69921875 57.13671875 C8.85650391 57.13478516 8.85650391 57.13478516 6.9765625 57.1328125 C5.85330566 57.13168457 4.73004883 57.13055664 3.57275391 57.12939453 C1 57 1 57 0 56 C-0.09365006 54.2507128 -0.11744438 52.49763746 -0.11352539 50.74584961 C-0.11344986 49.62476303 -0.11337433 48.50367645 -0.11329651 47.34861755 C-0.10813522 46.1288472 -0.10297394 44.90907684 -0.09765625 43.65234375 C-0.0962413 42.41078018 -0.09482635 41.16921661 -0.09336853 39.89002991 C-0.08870591 36.58394509 -0.07971497 33.27792854 -0.06866455 29.97186279 C-0.05844827 26.6003885 -0.05387045 23.22890717 -0.04882812 19.85742188 C-0.03777395 13.23826225 -0.02101736 6.61913507 0 0 Z M10 8 C10 13.28 10 18.56 10 24 C12.89640118 24.08120751 15.79050912 24.14059421 18.6875 24.1875 C19.50412109 24.21263672 20.32074219 24.23777344 21.16210938 24.26367188 C25.9425753 24.32173421 29.14632382 24.16104605 33 21 C35.32821558 18.18138229 35.32821558 18.18138229 34.75 15 C34.14014017 11.84584582 34.14014017 11.84584582 32 9 C29.17588235 8.05862745 27.47081968 7.88274618 24.55078125 7.90234375 C23.70322266 7.90556641 22.85566406 7.90878906 21.98242188 7.91210938 C21.10134766 7.92048828 20.22027344 7.92886719 19.3125 7.9375 C17.97348633 7.94426758 17.97348633 7.94426758 16.60742188 7.95117188 C14.40491927 7.96294996 12.20245115 7.98088519 10 8 Z M10 32 C10 37.28 10 42.56 10 48 C13.41714149 48.0809323 16.83236685 48.14046835 20.25 48.1875 C21.21808594 48.21263672 22.18617188 48.23777344 23.18359375 48.26367188 C24.11816406 48.27333984 25.05273438 48.28300781 26.015625 48.29296875 C26.87446289 48.3086792 27.73330078 48.32438965 28.61816406 48.34057617 C31.55490785 47.92065432 32.88093998 47.05302447 35 45 C36.10373378 41.02655839 36.41543583 38.91000228 34.6875 35.125 C33.17274837 32.9104069 33.17274837 32.9104069 31 32 C29.40552536 31.91599471 27.80759455 31.89272533 26.2109375 31.90234375 C24.79941406 31.90717773 24.79941406 31.90717773 23.359375 31.91210938 C22.37453125 31.92048828 21.3896875 31.92886719 20.375 31.9375 C18.88613281 31.94426758 18.88613281 31.94426758 17.3671875 31.95117188 C14.91143278 31.96297839 12.45570894 31.98091418 10 32 Z " fill="#FCFCFC" transform="translate(365,886)"/>
<path d="M0 0 C10 0 10 0 12.59375 1.9140625 C13.2228125 2.80867187 13.851875 3.70328125 14.5 4.625 C15.2321875 5.62917969 15.964375 6.63335938 16.71875 7.66796875 C17.47951453 8.77840759 18.23992156 9.88909143 19 11 C19.81957942 12.14432464 20.64256011 13.28622012 21.46875 14.42578125 C23.16043772 16.76565522 24.83260628 19.11773032 26.4921875 21.48046875 C29.66439873 25.97256865 33.02075383 30.32097554 36.3828125 34.671875 C38 37 38 37 38 39 C38.66 39 39.32 39 40 39 C40 26.13 40 13.26 40 0 C42.97 0 45.94 0 49 0 C49 18.81 49 37.62 49 57 C40 57 40 57 37.89941406 55.54150391 C37.44276367 54.86007324 36.98611328 54.17864258 36.515625 53.4765625 C35.97905273 52.71085938 35.44248047 51.94515625 34.88964844 51.15625 C34.07802246 49.90328125 34.07802246 49.90328125 33.25 48.625 C32.05216045 46.88796765 30.85424172 45.1509899 29.65625 43.4140625 C29.05554687 42.51977539 28.45484375 41.62548828 27.8359375 40.70410156 C24.9100829 36.39469125 21.82247761 32.20539963 18.75 28 C17.68057047 26.52207727 16.61272921 25.04300326 15.546875 23.5625 C15.10182617 22.94503906 14.65677734 22.32757812 14.19824219 21.69140625 C13.10417687 20.14705326 12.0498359 18.57475384 11 17 C10.67 30.2 10.34 43.4 10 57 C6.7 57 3.4 57 0 57 C0 38.19 0 19.38 0 0 Z " fill="#FEFEFE" transform="translate(1019,886)"/>
<path d="M0 0 C6.54342777 7.10429301 9.79984984 14.70875568 10.1875 24.375 C9.81441727 31.19058446 8.24684741 36.23907184 4.015625 41.62109375 C3.74234375 42.19988281 3.4690625 42.77867187 3.1875 43.375 C4.02587154 45.3905421 4.02587154 45.3905421 5.1875 47.375 C5.1875 48.695 5.1875 50.015 5.1875 51.375 C3.1875 53.125 3.1875 53.125 1.1875 54.375 C-0.75 53.5625 -0.75 53.5625 -2.8125 52.375 C-3.1425 51.385 -3.4725 50.395 -3.8125 49.375 C-4.781875 49.849375 -5.75125 50.32375 -6.75 50.8125 C-14.63285132 54.12993242 -22.70106291 53.94264915 -30.8125 51.375 C-36.08629635 48.70186963 -40.63804839 45.43060812 -43.8125 40.375 C-44.18246094 39.78589844 -44.55242188 39.19679688 -44.93359375 38.58984375 C-49.11456328 30.84998667 -49.04945167 21.88638819 -47.15234375 13.43359375 C-44.47918365 5.85385408 -39.71682638 0.69778657 -32.625 -3 C-21.60939821 -8.16005787 -10.24630562 -5.92008769 0 0 Z M-34.8125 9.375 C-38.95095929 16.98922413 -39.98922149 23.5151528 -37.8125 31.9375 C-35.93552847 37.14429123 -32.32366428 40.31905 -27.8125 43.375 C-24.57377868 44.45457377 -22.15221795 44.50826784 -18.75 44.5 C-17.68652344 44.50257813 -16.62304688 44.50515625 -15.52734375 44.5078125 C-12.84545616 44.55938455 -12.84545616 44.55938455 -10.8125 43.375 C-12.33958963 39.93904834 -14.41177045 37.25587546 -16.8125 34.375 C-14.8325 33.055 -12.8525 31.735 -10.8125 30.375 C-8.8325 32.685 -6.8525 34.995 -4.8125 37.375 C-0.54490352 33.10740352 0.30253437 29.34351738 0.5 23.4375 C0.32195856 16.01539751 -2.51778837 10.55205137 -7.8125 5.375 C-17.04135202 0.20684287 -27.4320192 1.59557429 -34.8125 9.375 Z " fill="#FEFEFE" transform="translate(760.8125,890.625)"/>
<path d="M0 0 C10 0 10 0 13.36328125 3.0859375 C14.37959058 4.49219283 15.36120633 5.9239731 16.3125 7.375 C16.84738037 8.12998779 17.38226074 8.88497559 17.93334961 9.6628418 C19.06492888 11.26452509 20.18258645 12.87612218 21.28710938 14.49658203 C23.58314068 17.85226975 25.96176468 21.14494976 28.34643555 24.43798828 C29.46763088 25.9893819 30.5814266 27.54615754 31.68676758 29.10888672 C32.19361084 29.82189941 32.7004541 30.53491211 33.22265625 31.26953125 C33.88406616 32.20696167 33.88406616 32.20696167 34.55883789 33.16333008 C36.2007833 35.25588562 38.11920583 37.11920583 40 39 C40 26.13 40 13.26 40 0 C42.97 0 45.94 0 49 0 C49 18.81 49 37.62 49 57 C40 57 40 57 37.390625 54.7890625 C36.68421875 53.74492188 35.9778125 52.70078125 35.25 51.625 C34.65010254 50.76998901 34.65010254 50.76998901 34.03808594 49.89770508 C33.15559039 48.63769011 32.28536912 47.36901436 31.42578125 46.09326172 C29.33690296 43.02647362 27.14454297 40.03758918 24.95996094 37.03857422 C22.80845429 34.08040617 20.68156728 31.10487673 18.55273438 28.13037109 C16.45732526 25.25544343 14.28223501 22.44368633 12.09277344 19.63989258 C11 18 11 18 11 16 C10.34 16 9.68 16 9 16 C9 29.53 9 43.06 9 57 C6.03 57 3.06 57 0 57 C0 38.19 0 19.38 0 0 Z " fill="#FEFEFE" transform="translate(1148,886)"/>
<path d="M0 0 C5.79160945 4.66961869 9.27893834 10.14078545 10.7421875 17.45703125 C11.60300989 26.95430125 10.32443255 35.97876715 4.5546875 43.83203125 C-2.34843383 50.27494449 -9.84608754 52.96491491 -19.2578125 53.45703125 C-28.26802705 52.93696115 -34.8810927 49.17886974 -41.0703125 42.76953125 C-46.04890264 36.72247655 -47.86780678 29.50877114 -47.5390625 21.7421875 C-46.57161313 13.88166138 -44.00761687 7.03948164 -38.2578125 1.45703125 C-26.26987094 -7.23564675 -12.61444293 -8.62059681 0 0 Z M-33.1328125 9.39453125 C-37.81380188 16.140663 -38.04451919 22.41514067 -37.2578125 30.45703125 C-35.43972443 36.70732322 -32.00381527 40.20453285 -26.46484375 43.53515625 C-21.53414155 45.5947062 -15.09945195 45.39078489 -10.05859375 43.734375 C-4.51906989 40.76634378 -1.09437568 36.39054307 0.7421875 30.45703125 C2.44853871 23.20503862 1.35724919 16.68715462 -1.9453125 10.08203125 C-6.22594834 5.2229311 -11.4611511 2.69403645 -17.9453125 2.14453125 C-24.09489839 2.24627072 -29.08327301 4.79871957 -33.1328125 9.39453125 Z " fill="#FEFEFE" transform="translate(474.2578125,890.54296875)"/>
<path d="M0 0 C7.1775 -0.12375 7.1775 -0.12375 14.5 -0.25 C15.99337891 -0.28641602 17.48675781 -0.32283203 19.02539062 -0.36035156 C26.49303449 -0.4226154 31.73541596 -0.2199468 38 4 C42.79882282 9.0449163 43.41529581 13.38458325 43.34375 20.13671875 C42.80606242 24.61541187 41.07755913 27.73858668 38 31 C33.21875 34 33.21875 34 30 34 C30.39380859 34.62567871 30.78761719 35.25135742 31.19335938 35.89599609 C32.96687322 38.71945112 34.73350944 41.54714609 36.5 44.375 C37.12003906 45.35984375 37.74007812 46.3446875 38.37890625 47.359375 C39.25869141 48.77089844 39.25869141 48.77089844 40.15625 50.2109375 C40.70087891 51.08024902 41.24550781 51.94956055 41.80664062 52.84521484 C43 55 43 55 43 57 C39.30966641 58.1306554 36.65783688 58.32515936 33 57 C28.01028712 51.71585768 24.7001216 44.53030715 21.5703125 38.03125 C20.12951258 35.74050592 20.12951258 35.74050592 17.30078125 35.29296875 C16.31464844 35.25816406 15.32851563 35.22335937 14.3125 35.1875 C12.559375 35.125625 10.80625 35.06375 9 35 C9 42.26 9 49.52 9 57 C6.03 57 3.06 57 0 57 C0 38.19 0 19.38 0 0 Z M9 8 C9 14.27 9 20.54 9 27 C11.866875 27.061875 14.73375 27.12375 17.6875 27.1875 C18.58170654 27.21481201 19.47591309 27.24212402 20.3972168 27.27026367 C25.10610894 27.31937514 28.16987852 27.05364461 32 24 C34.10101595 21.3259797 33.99846976 19.95715315 33.875 16.5 C32.92565772 12.70263089 32.02747709 11.38528498 29 9 C26.703463 7.8517315 25.41686833 7.88438825 22.8671875 7.90234375 C22.14128418 7.90484131 21.41538086 7.90733887 20.66748047 7.90991211 C19.74596191 7.91901611 18.82444336 7.92812012 17.875 7.9375 C13.481875 7.9684375 13.481875 7.9684375 9 8 Z " fill="#FEFEFE" transform="translate(504,886)"/>
<path d="M0 0 C4.29 0 8.58 0 13 0 C15.4919706 6.34901114 17.98213794 12.69872556 20.47070312 19.04907227 C21.31592191 21.20518667 22.16161624 23.36111473 23.0078125 25.5168457 C24.23044687 28.63182395 25.45131736 31.74748878 26.671875 34.86328125 C27.04495789 35.81270096 27.41804077 36.76212067 27.8024292 37.74031067 C30.30136043 44.12606055 32.67719857 50.54802884 35 57 C31.37 57 27.74 57 24 57 C22.68 53.7 21.36 50.4 20 47 C11.09 47 2.18 47 -7 47 C-8.98 51.95 -8.98 51.95 -11 57 C-14.63 57 -18.26 57 -22 57 C-17.6059284 44.14549653 -12.71134373 31.53220148 -7.625 18.9375 C-6.88118301 17.08802227 -6.13769168 15.23841353 -5.39453125 13.38867188 C-3.60008898 8.92426844 -1.80130461 4.46163877 0 0 Z M6 10 C-0.66764987 23.13838923 -0.66764987 23.13838923 -4 37 C2.93 37 9.86 37 17 37 C15.11498356 30.71661188 13.22612855 24.56587364 10.9375 18.4375 C10.68162109 17.72787109 10.42574219 17.01824219 10.16210938 16.28710938 C8.96220485 12.43203633 8.96220485 12.43203633 6 10 Z " fill="#FEFEFE" transform="translate(315,886)"/>
<path d="M0 0 C12.87 0 25.74 0 39 0 C39 2.64 39 5.28 39 8 C29.1 8 19.2 8 9 8 C9.33 12.95 9.66 17.9 10 23 C23.86 23.495 23.86 23.495 38 24 C38 26.64 38 29.28 38 32 C28.43 32 18.86 32 9 32 C9 37.28 9 42.56 9 48 C18.9 48 28.8 48 39 48 C39 50.64 39 53.28 39 56 C38 57 38 57 34.39819336 57.11352539 C32.79540145 57.11327429 31.19260413 57.1077126 29.58984375 57.09765625 C28.84383911 57.09664917 28.09783447 57.09564209 27.32922363 57.09460449 C24.53196687 57.08935689 21.73473196 57.07539573 18.9375 57.0625 C12.688125 57.041875 6.43875 57.02125 0 57 C0 38.19 0 19.38 0 0 Z " fill="#FCFCFC" transform="translate(860,886)"/>
<path d="M0 0 C12.54 0 25.08 0 38 0 C38 2.64 38 5.28 38 8 C28.43 8 18.86 8 9 8 C9 13.28 9 18.56 9 24 C18.57 24 28.14 24 38 24 C38 26.64 38 29.28 38 32 C28.43 32 18.86 32 9 32 C9 37.28 9 42.56 9 48 C18.57 48 28.14 48 38 48 C38 50.97 38 53.94 38 57 C25.46 57 12.92 57 0 57 C0 38.19 0 19.38 0 0 Z " fill="#FDFDFD" transform="translate(1090,886)"/>
<path d="M0 0 C12.54 0 25.08 0 38 0 C38 2.64 38 5.28 38 8 C28.43 8 18.86 8 9 8 C9 13.28 9 18.56 9 24 C18.57 24 28.14 24 38 24 C38 26.64 38 29.28 38 32 C28.43 32 18.86 32 9 32 C9 37.28 9 42.56 9 48 C18.57 48 28.14 48 38 48 C38 50.97 38 53.94 38 57 C25.46 57 12.92 57 0 57 C0 38.19 0 19.38 0 0 Z " fill="#FDFDFD" transform="translate(567,886)"/>
<path d="M0 0 C3.125 2.1875 3.125 2.1875 5 4 C4.13586901 6.73641481 3.43752063 8.59488831 1.3125 10.5625 C-1.88106375 11.16668774 -3.24435549 9.70877998 -5.87109375 8.03515625 C-9.94022291 6.05658886 -14.52382185 5.80193902 -19 6 C-21.75755019 6.91217785 -21.75755019 6.91217785 -24 8 C-24.33 10.31 -24.66 12.62 -25 15 C-20.63756256 19.06199409 -14.76384751 20.01926386 -9.17382812 21.57421875 C-3.01328173 23.39272258 2.56457093 25.5514861 6.41796875 31.0078125 C7.92079467 36.1517133 7.57386018 41.36902897 5.8125 46.375 C2.3103674 51.44705411 -1.91632575 54.11590557 -7.89453125 55.41015625 C-18.93190629 57.14033936 -27.98265458 54.3440616 -37 48 C-35.87548273 45.0280615 -34.77706209 42.66559313 -33 40 C-31.04482065 40.94978078 -29.15196051 41.90339401 -27.31640625 43.0703125 C-21.23413609 46.72780235 -14.94378161 47.06685916 -8 46 C-5.15294203 44.62981826 -4.64028159 43.83894891 -3 41 C-2.74846741 38.34095531 -2.74846741 38.34095531 -4 36 C-7.51207824 32.60292684 -11.6630933 31.82007515 -16.25 30.625 C-30.78871755 26.55145364 -30.78871755 26.55145364 -35.0625 19.6875 C-36.52843263 13.92149831 -36.02950578 10.05901157 -33.375 4.75 C-24.80218493 -5.17641745 -11.32322773 -4.78982553 0 0 Z " fill="#FEFEFE" transform="translate(274,888)"/>
<path d="M0 0 C0.804375 0.598125 1.60875 1.19625 2.4375 1.8125 C1.57336901 4.54891481 0.87502063 6.40738831 -1.25 8.375 C-4.44353087 8.97918152 -5.80675189 7.51845893 -8.4375 5.8515625 C-12.562641 3.83448988 -17.0252883 3.60812109 -21.5625 3.8125 C-25.13681946 5.04964643 -25.13681946 5.04964643 -27.5625 6.8125 C-27.5625 9.1225 -27.5625 11.4325 -27.5625 13.8125 C-22.08625437 16.13650492 -16.68541761 18.07567798 -10.9375 19.625 C-4.94422951 21.41022951 -0.57086746 23.9596731 3.4375 28.8125 C5.23660157 34.20980471 5.13218904 38.91298284 2.8125 44.0625 C0.59667053 47.94591248 -1.40726654 49.91713035 -5.5625 51.8125 C-17.25091287 54.84516928 -27.14056289 53.8761725 -37.5625 47.8125 C-38.2225 47.1525 -38.8825 46.4925 -39.5625 45.8125 C-39.30989753 42.02346292 -37.28400557 40.27063407 -34.5625 37.8125 C-33.74845703 38.33650391 -33.74845703 38.33650391 -32.91796875 38.87109375 C-32.20253906 39.32613281 -31.48710938 39.78117188 -30.75 40.25 C-30.04230469 40.70246094 -29.33460938 41.15492188 -28.60546875 41.62109375 C-24.93781037 43.75997674 -21.85819236 44.00009563 -17.6875 44.0625 C-16.65882813 44.08828125 -15.63015625 44.1140625 -14.5703125 44.140625 C-11.12087981 43.76432325 -9.27533557 42.95913577 -6.5625 40.8125 C-5.8125 37.3125 -5.8125 37.3125 -6.5625 33.8125 C-9.91768969 30.34518315 -14.29973282 29.61277093 -18.8125 28.4375 C-33.01746868 24.47098252 -33.01746868 24.47098252 -37.5625 17.9375 C-39.11487541 13.08632683 -39.167373 9.49270277 -37.4375 4.6875 C-34.49168014 0.17057621 -31.31704007 -2.47893574 -26.3125 -4.5 C-16.77570127 -6.2484131 -8.22328108 -5.41157373 0 0 Z " fill="#FEFEFE" transform="translate(661.5625,890.1875)"/>
<path d="M0 0 C2.97 0 5.94 0 9 0 C9.01458252 1.08418213 9.02916504 2.16836426 9.04418945 3.28540039 C9.10243472 7.33178664 9.1796647 11.37763159 9.26245117 15.42358398 C9.29557767 17.17023899 9.32364737 18.91699788 9.34643555 20.66381836 C9.38020881 23.1838787 9.43253347 25.70299752 9.48828125 28.22265625 C9.49467117 28.99585709 9.5010611 29.76905792 9.50764465 30.56568909 C9.66338113 36.38974209 10.7238631 41.26863572 14.5625 45.875 C17.60573712 48.25666383 20.01434795 48.19380046 23.8125 48.25 C24.85019531 48.27578125 25.88789062 48.3015625 26.95703125 48.328125 C30.48352565 47.94786116 32.21292447 47.1766634 35 45 C38.58414369 40.47503216 38.47013221 36.28807456 38.51171875 30.76171875 C38.52966995 29.88095169 38.54762115 29.00018463 38.56611633 28.09272766 C38.6201191 25.2910332 38.65408266 22.48950813 38.6875 19.6875 C38.72068195 17.78317961 38.75517243 15.87888154 38.79101562 13.97460938 C38.87583978 9.31652866 38.94269874 4.6584973 39 0 C42.3 0 45.6 0 49 0 C49.04972917 5.12287 49.08587445 10.24559702 49.10986328 15.36865234 C49.11987218 17.10858612 49.13348343 18.8485033 49.15087891 20.58837891 C49.17535354 23.10062785 49.1865344 25.61265288 49.1953125 28.125 C49.20563507 28.89303955 49.21595764 29.6610791 49.22659302 30.45239258 C49.22817685 38.21274367 47.96054833 44.7638821 43 51 C37.34062531 56.22403817 31.57450679 57.8829288 24 58 C16.83949927 57.44997576 10.43594436 55.89747818 5 51 C1.44414327 46.3897904 -0.13176239 41.63691539 -0.11352539 35.87402344 C-0.11344986 35.07349548 -0.11337433 34.27296753 -0.11329651 33.44818115 C-0.10813522 32.59387512 -0.10297394 31.73956909 -0.09765625 30.859375 C-0.0962413 29.97719299 -0.09482635 29.09501099 -0.09336853 28.18609619 C-0.08778001 25.37402935 -0.07522961 22.5620427 -0.0625 19.75 C-0.05748352 17.84114698 -0.05292087 15.93229272 -0.04882812 14.0234375 C-0.03781434 9.34892753 -0.02055758 4.67447735 0 0 Z " fill="#FEFEFE" transform="translate(949,886)"/>
<path d="M0 0 C2.97 0 5.94 0 9 0 C9.01458252 1.15000488 9.02916504 2.30000977 9.04418945 3.48486328 C9.10233762 7.76788805 9.17956924 12.05039616 9.26245117 16.33300781 C9.29562296 18.18350819 9.32367887 20.03410786 9.34643555 21.88476562 C9.3801245 24.55121003 9.4324466 27.2167509 9.48828125 29.8828125 C9.49467117 30.70492218 9.5010611 31.52703186 9.50764465 32.37405396 C9.6324531 37.29444678 10.29555286 40.73126395 13 45 C17.51177072 48.59876484 21.53957582 48.50238848 27.11328125 48.3515625 C31.02167199 47.87557445 33.18616284 46.73978881 36 44 C38.44641613 39.46524474 38.34389331 35.00582433 38.4140625 29.98046875 C38.43342865 29.12189774 38.4527948 28.26332672 38.4727478 27.3787384 C38.53231556 24.64842526 38.57883734 21.91806943 38.625 19.1875 C38.66320079 17.33136227 38.70225375 15.47524188 38.7421875 13.61914062 C38.83799827 9.07956856 38.92211321 4.53991354 39 0 C41.97 0 44.94 0 48 0 C48.09933715 5.83491118 48.17168936 11.66932337 48.21972656 17.50488281 C48.23976497 19.48739199 48.26700353 21.46984263 48.30175781 23.45214844 C48.35061954 26.31199641 48.37304673 29.17105881 48.390625 32.03125 C48.41127014 32.90865845 48.43191528 33.78606689 48.45318604 34.69006348 C48.45565651 41.56095626 46.73656311 46.7110448 42.31640625 52.0234375 C35.64674647 57.16308624 28.29471724 58.22061322 20 57.875 C13.62613867 57.02515182 8.27956758 54.93722941 4 50 C0.15089316 44.04622482 -0.55498693 39.016552 -0.390625 32.03125 C-0.38496521 31.11033569 -0.37930542 30.18942139 -0.37347412 29.24060059 C-0.35125236 26.32651693 -0.30108383 23.41370603 -0.25 20.5 C-0.2299166 18.51303871 -0.21166906 16.52605796 -0.1953125 14.5390625 C-0.1514343 9.69222501 -0.08250689 4.84632758 0 0 Z " fill="#FEFEFE" transform="translate(790,886)"/>
<path d="M0 0 C9.67944531 4.84700043 15.12939985 17.04959246 18.4765625 26.8828125 C20.65123393 35.56629073 20.2136846 44.06652944 16.59765625 52.30078125 C14.91612808 55.0785269 13.20636536 57.34582093 10.59765625 59.30078125 C7.34765625 59.86328125 7.34765625 59.86328125 4.59765625 59.30078125 C3.93765625 58.64078125 3.27765625 57.98078125 2.59765625 57.30078125 C2.85733184 52.62662057 3.56189604 49.84250149 6.59765625 46.30078125 C9.46247001 37.70633997 7.4277861 29.2430137 3.59765625 21.30078125 C1.14301399 17.07407104 -1.58371694 13.24866492 -4.77734375 9.55078125 C-6.40234375 7.30078125 -6.40234375 7.30078125 -6.90234375 4.67578125 C-6.40234375 2.30078125 -6.40234375 2.30078125 -4.71484375 0.36328125 C-2.40234375 -0.69921875 -2.40234375 -0.69921875 0 0 Z " fill="#FEFEFE" transform="translate(625.40234375,113.69921875)"/>
</svg>
